<?xml version="1.0" encoding="utf-8"?>
<!--
  ~ WayFusion (www.wayfusion.com)
  ~
  ~ Copyright (c) 2017, Sergio Khlopenkov. All rights reserved.
  ~
  ~ This source code is licensed under the MIT license found in the
  ~ LICENSE file in the root directory of this source tree.
  -->

<!-- Generator: Adobe Illustrator 17.1.0, SVG Export Plug-In . SVG Version: 6.00 Build 0)  -->
<!DOCTYPE svg PUBLIC "-//W3C//DTD SVG 1.1//EN" "http://www.w3.org/Graphics/SVG/1.1/DTD/svg11.dtd">
<svg version="1.1" id="Layer_1" xmlns="http://www.w3.org/2000/svg" xmlns:xlink="http://www.w3.org/1999/xlink" x="0px" y="0px"
	 viewBox="0 0 128 128" enable-background="new 0 0 128 128" xml:space="preserve">
<g>
	<g>

			<linearGradient id="SVGID_1_" gradientUnits="userSpaceOnUse" x1="-340.4094" y1="2988.6521" x2="-340.4094" y2="3011.0806" gradientTransform="matrix(-0.9552 0.2961 -0.2961 -0.9552 629.1497 3017.76)">
			<stop  offset="0" style="stop-color:#9B599C"/>
			<stop  offset="0.3792" style="stop-color:#99589A"/>
			<stop  offset="0.5812" style="stop-color:#915695"/>
			<stop  offset="0.7414" style="stop-color:#83538B"/>
			<stop  offset="0.8789" style="stop-color:#704E7D"/>
			<stop  offset="1" style="stop-color:#58486C"/>
		</linearGradient>
		<path fill="url(#SVGID_1_)" d="M63.1,61L63.1,61C78,50.5,88.2,47.3,95.4,51c-0.2,0.2-0.4,0.4-0.6,0.5c1.7,0.1,3.4,0.6,4.9,1.3
			c-0.3-1.5-0.9-2.9-1.7-4.2c-0.2,0.2-0.4,0.3-0.6,0.5c-7.7-4.3-19.4-0.5-35.8,11.1c-21.7,15.3-31-1.2-16.5-11.6
			c0.1,0.2,0.3,0.2,0.5,0.3c0.6-1.1,1.5-2.2,2.7-3.4c-1.8,0.5-3.6,0.8-5.2,1.4c0.2,0.1,0.3,0.3,0.4,0.4C27.2,58.6,37.7,79,63.1,61z"
			/>

			<linearGradient id="SVGID_2_" gradientUnits="userSpaceOnUse" x1="-338.8916" y1="2981.2434" x2="-338.8916" y2="3008.9182" gradientTransform="matrix(-0.9552 0.2961 -0.2961 -0.9552 629.1497 3017.76)">
			<stop  offset="0" style="stop-color:#D0DC5E"/>
			<stop  offset="0.3556" style="stop-color:#CEDA5E"/>
			<stop  offset="0.5592" style="stop-color:#C5D45D"/>
			<stop  offset="0.7245" style="stop-color:#B7C95C"/>
			<stop  offset="0.8683" style="stop-color:#A4BA5B"/>
			<stop  offset="0.9984" style="stop-color:#8AA759"/>
			<stop  offset="1" style="stop-color:#8AA759"/>
		</linearGradient>
		<path fill="url(#SVGID_2_)" d="M64.6,61.9c17.3-12.2,29-12.1,33.2-4.7c-0.2,0.1-0.4,0.2-0.7,0.3c1.3,0.7,2.4,1.7,3.3,2.8
			c0.3-1.5,0.5-3.1,0.5-4.7c-0.2,0.1-0.4,0.2-0.7,0.3c-4.4-8.6-17.8-8.6-37.1,5C41.9,75.9,30.8,65.5,37,54.1c0.2,0,0.4,0.1,0.7,0.2
			c-0.2-1.1-0.1-2.2,0.2-3.5c-1.4,0.7-2.7,1.5-3.9,2.4c0.2,0.1,0.4,0.1,0.6,0.2C27.6,66.4,40.2,79,64.6,61.9z"/>

			<linearGradient id="SVGID_3_" gradientUnits="userSpaceOnUse" x1="-335.7335" y1="2973.9985" x2="-335.7335" y2="3003.9614" gradientTransform="matrix(-0.9552 0.2961 -0.2961 -0.9552 629.1497 3017.76)">
			<stop  offset="0" style="stop-color:#6CA8DF"/>
			<stop  offset="0.4254" style="stop-color:#6BA6DD"/>
			<stop  offset="0.6519" style="stop-color:#689ED6"/>
			<stop  offset="0.8311" style="stop-color:#6390CB"/>
			<stop  offset="0.9854" style="stop-color:#5C7DBB"/>
			<stop  offset="1" style="stop-color:#5B7BB9"/>
		</linearGradient>
		<path fill="url(#SVGID_3_)" d="M66,62.7C85.5,49,97,54.5,97.1,64.9c-0.2,0-0.5,0-0.7,0.1c0.7,1.1,1.3,2.3,1.6,3.7
			c0.9-1.1,1.7-2.4,2.3-3.8c-0.2,0-0.5,0-0.7,0c0-12.2-13.1-18.5-35.1-3c-19.7,13.8-31.6,9.5-32-0.5c0.2-0.1,0.5,0,0.7-0.1
			c-0.7-1-1.4-2.1-1.7-3.4c-0.9,1.2-1.7,2.4-2.3,3.8c0.2,0,0.5,0,0.7-0.1C30.2,73.3,43.9,78.3,66,62.7z"/>

			<linearGradient id="SVGID_4_" gradientUnits="userSpaceOnUse" x1="-332.816" y1="2969.196" x2="-332.816" y2="2996.845" gradientTransform="matrix(-0.9552 0.2961 -0.2961 -0.9552 629.1497 3017.76)">
			<stop  offset="0" style="stop-color:#F2EB53"/>
			<stop  offset="0.1809" style="stop-color:#F1E652"/>
			<stop  offset="0.3966" style="stop-color:#EED750"/>
			<stop  offset="0.6301" style="stop-color:#E9BF4D"/>
			<stop  offset="0.8745" style="stop-color:#E29E48"/>
			<stop  offset="1" style="stop-color:#DE8A45"/>
		</linearGradient>
		<path fill="url(#SVGID_4_)" d="M29.6,70.2c4.8,7.9,18.5,7,37.9-6.6c20.9-14.7,31.4-2.8,25.3,8.6c-0.2,0-0.4-0.2-0.7-0.2
			c0.2,1.1,0.1,2.4-0.3,3.6c1.3-0.6,2.6-1.4,3.8-2.2c-0.2-0.1-0.4-0.2-0.6-0.3c7-13-5-27.3-29-10.4c-17.4,12.3-29.4,13-34,6.2
			c0.2-0.2,0.5-0.3,0.7-0.4c-1.3-0.6-2.5-1.4-3.5-2.5c-0.3,1.5-0.5,3-0.4,4.5C29.2,70.4,29.4,70.3,29.6,70.2z"/>

			<linearGradient id="SVGID_5_" gradientUnits="userSpaceOnUse" x1="-331.4565" y1="2967.2349" x2="-331.4565" y2="2990.0093" gradientTransform="matrix(-0.9552 0.2961 -0.2961 -0.9552 629.1497 3017.76)">
			<stop  offset="1.098900e-002" style="stop-color:#BB4D45"/>
			<stop  offset="0.7692" style="stop-color:#A14B46"/>
			<stop  offset="1" style="stop-color:#64342E"/>
		</linearGradient>
		<path fill="url(#SVGID_5_)" d="M32,77.2c0.2-0.2,0.4-0.4,0.6-0.5c8.2,3.6,19.9-0.7,36.4-12.2c21.4-15,29.9,3.3,15.8,12.9
			c-0.2-0.1-0.3-0.2-0.4-0.4c-0.6,1.1-1.5,2.2-2.7,3.3c1.7-0.3,3.4-0.6,5.1-1c-0.2-0.1-0.2-0.3-0.4-0.4
			c15.8-10.4,6.2-32.8-18.8-15.2l0,0c-15,10.5-25.2,14.1-32.8,11.1c0.2-0.2,0.4-0.4,0.6-0.6c-1.8,0-3.6-0.2-5.2-0.8
			C30.5,74.6,31.1,76,32,77.2z"/>
	</g>
	<g>
		<g>
			<path fill="#6472B2" d="M30.8,36.1c7-8.3,17.1-14,28.5-15.3l4.4-7.8l-8.6-9.5c-15.9,2.4-29.8,10.9-39.3,23l12.7,0.8L30.8,36.1z"
				/>
			<path fill="#E9C650" d="M20.6,67.6c-0.1-1.1-0.1-2.2-0.1-3.3c0-10.3,3.6-19.8,9.5-27.3l-2.4-8.8L15,27.5
				C7.3,37.8,2.7,50.5,2.7,64.4c0,2.8,0.2,5.6,0.6,8.2l9.6-9.1L20.6,67.6z"/>
			<path fill="#C54D45" d="M60.6,20.6c1.2-0.1,2.5-0.2,3.7-0.2c9.7,0,18.6,3.1,25.8,8.4l10-1.9l1.6-11.6C91.4,7.5,78.4,2.7,64.4,2.7
				c-2.7,0-5.4,0.2-8,0.5l8.6,9.5L60.6,20.6z"/>
			<path fill="#8DBE5C" d="M91.4,29.8c8.7,6.8,14.8,16.8,16.4,28.2l7.8,4.8l9.6-8c-2.4-15.6-10.7-29.2-22.5-38.6l-1.6,11.8
				L91.4,29.8z"/>
			<path fill="#EEEA68" d="M36.5,98.3c-8.7-7.1-14.5-17.5-15.8-29.3l-7.6-4.1l-9.6,9.1c2.5,15.8,10.9,29.6,23,39l0.9-12.4L36.5,98.3
				z"/>
			<path fill="#6696D0" d="M125.4,56l-9.7,8.1l-7.8-4.8c0.2,1.6,0.3,3.3,0.3,5c0,10.4-3.7,20-9.7,27.6l2.8,7.6l14-0.4
				C122,89.2,126,77.3,126,64.4C126,61.5,125.8,58.8,125.4,56z"/>
			<path fill="#C95699" d="M97.7,92.9c-6.5,7.5-15.4,12.9-25.6,14.7l-5.9,8.4l7,9.4c17-2.4,31.7-11.8,41.3-25.1l-13.9,0.4L97.7,92.9
				z"/>
			<path fill="#936DAA" d="M70.6,107.8c-2,0.3-4.1,0.4-6.2,0.4c-10.1,0-19.4-3.4-26.8-9.2l-9.2,2.3l-0.9,12.3
				c10.3,7.7,23.1,12.3,36.9,12.3c2.6,0,5.1-0.2,7.6-0.5l-7.1-9.5L70.6,107.8z"/>
			<path fill="#22191B" d="M59.3,20.8c0.4-0.1,0.9-0.1,1.3-0.1l4.4-7.8l-8.6-9.5c-0.4,0.1-0.9,0.1-1.3,0.2l8.6,9.5L59.3,20.8z"/>
			<path fill="#22191B" d="M90.2,28.9c0.4,0.3,0.8,0.6,1.2,0.9l9.8-1.8l1.6-11.8c-0.3-0.3-0.7-0.5-1-0.8L100.2,27L90.2,28.9z"/>
			<path fill="#22191B" d="M107.8,58c0.1,0.5,0.1,0.9,0.2,1.4l7.8,4.8l9.7-8.1c-0.1-0.4-0.1-0.8-0.2-1.3l-9.6,8L107.8,58z"/>
			<path fill="#22191B" d="M98.5,91.9c-0.3,0.3-0.5,0.6-0.8,1l2.8,7.7l13.9-0.4c0.3-0.4,0.5-0.7,0.8-1.1l-14,0.4L98.5,91.9z"/>
			<path fill="#22191B" d="M72.1,107.6c-0.5,0.1-1,0.2-1.5,0.2l-5.7,8.2l7.1,9.5c0.4-0.1,0.8-0.1,1.2-0.2l-7-9.4L72.1,107.6z"/>
			<path fill="#22191B" d="M37.5,99.1c-0.4-0.3-0.7-0.6-1.1-0.9l-9.1,2.3L26.4,113c0.3,0.3,0.7,0.5,1,0.8l0.9-12.3L37.5,99.1z"/>
			<path fill="#22191B" d="M20.7,68.9c0-0.4-0.1-0.9-0.1-1.3l-7.7-4.1l-9.6,9.1c0.1,0.4,0.1,0.9,0.2,1.3l9.6-9.1L20.7,68.9z"/>
			<path fill="#22191B" d="M30,37.1c0.3-0.4,0.6-0.7,0.9-1l-2.4-8.8l-12.7-0.8c-0.3,0.3-0.5,0.7-0.8,1l12.6,0.8L30,37.1z"/>
			<path fill="none" d="M88.8,30.3c-0.4-0.3-0.8-0.6-1.3-0.9c-6.6-4.4-14.6-7-23.1-7c-1.7,0-3.3,0.1-4.9,0.3
				c-0.5,0.1-0.9,0.1-1.3,0.2c-10.8,1.6-20.2,7.3-26.6,15.5c-0.3,0.4-0.6,0.7-0.8,1.1c-5.1,7-8.2,15.6-8.2,24.9
				c0,1.5,0.1,2.9,0.2,4.4c0,0.4,0.1,0.9,0.2,1.3c1.5,11.2,7.5,21,16,27.6c0.4,0.3,0.8,0.6,1.1,0.8c6.9,4.9,15.3,7.8,24.4,7.8
				c2.7,0,5.3-0.3,7.8-0.7c0.5-0.1,1-0.2,1.6-0.3c9.3-2.1,17.4-7.3,23.2-14.5c0.3-0.3,0.5-0.7,0.8-1c5.4-7,8.6-15.8,8.6-25.4
				c0-2.1-0.2-4.3-0.5-6.3c-0.1-0.5-0.2-1-0.3-1.4C103.6,45.8,97.4,36.4,88.8,30.3z"/>
			<path fill="#5562A7" d="M58.1,22.9l1.2-2.1c-11.4,1.3-21.4,7-28.5,15.3l0.6,2.3C37.9,30.2,47.3,24.5,58.1,22.9z"/>
			<path fill="#C3A54D" d="M22.4,64.4c0-9.3,3-17.9,8.2-24.9L30,37.1c-5.9,7.5-9.5,17-9.5,27.3c0,1.1,0.1,2.2,0.1,3.3l2.1,1.1
				C22.5,67.3,22.4,65.8,22.4,64.4z"/>
			<path fill="#AB4F46" d="M64.4,22.4c8.6,0,16.5,2.6,23.1,7l2.7-0.5C83,23.6,74,20.5,64.4,20.5c-1.3,0-2.5,0.1-3.7,0.2l-1.2,2.1
				C61.1,22.5,62.7,22.4,64.4,22.4z"/>
			<path fill="#729C5B" d="M105.6,56.6l2.2,1.4c-1.7-11.4-7.7-21.4-16.4-28.2l-2.6,0.5C97.4,36.4,103.6,45.8,105.6,56.6z"/>
			<path fill="#D1CF4D" d="M22.8,70.1l-2.1-1.1c1.2,11.8,7.1,22.2,15.8,29.3l2.4-0.6C30.3,91.1,24.4,81.3,22.8,70.1z"/>
			<path fill="#5680B3" d="M106.3,64.4c0,9.5-3.2,18.3-8.6,25.4l0.8,2.2c6.1-7.5,9.7-17.1,9.7-27.6c0-1.7-0.1-3.4-0.3-5l-2.2-1.3
				C106.1,60.1,106.3,62.2,106.3,64.4z"/>
			<path fill="#AD5783" d="M73.7,105.2l-1.6,2.3c10.2-1.8,19.2-7.1,25.6-14.7l-0.8-2.1C91.1,97.9,83,103.1,73.7,105.2z"/>
			<path fill="#8862A4" d="M64.4,106.3c-9.1,0-17.5-2.9-24.4-7.8l-2.5,0.6c7.4,5.7,16.7,9.2,26.8,9.2c2.1,0,4.2-0.2,6.2-0.4l1.6-2.3
				C69.6,106,67,106.3,64.4,106.3z"/>
			<path fill="#573538" d="M59.4,22.7l1.2-2.1c-0.4,0-0.9,0.1-1.3,0.1l-1.2,2.1C58.5,22.8,59,22.8,59.4,22.7z"/>
			<path fill="#573538" d="M88.8,30.3l2.6-0.5c-0.4-0.3-0.8-0.6-1.2-0.9l-2.7,0.5C87.9,29.7,88.3,30,88.8,30.3z"/>
			<path fill="#573538" d="M105.6,56.6c0.1,0.5,0.2,1,0.3,1.4l2.2,1.3c-0.1-0.5-0.1-0.9-0.2-1.4L105.6,56.6z"/>
			<path fill="#573538" d="M96.9,90.8l0.8,2.1c0.3-0.3,0.5-0.6,0.8-1l-0.8-2.2C97.5,90.1,97.2,90.4,96.9,90.8z"/>
			<path fill="#573538" d="M72.2,105.6l-1.6,2.3c0.5-0.1,1-0.2,1.5-0.2l1.6-2.3C73.2,105.4,72.7,105.5,72.2,105.6z"/>
			<path fill="#573538" d="M38.9,97.7l-2.4,0.6c0.4,0.3,0.7,0.6,1.1,0.9l2.5-0.6C39.6,98.2,39.2,97.9,38.9,97.7z"/>
			<path fill="#573538" d="M22.7,68.7l-2.1-1.1c0,0.4,0.1,0.9,0.1,1.3l2.1,1.1C22.8,69.6,22.7,69.2,22.7,68.7z"/>
			<path fill="#573538" d="M31.4,38.4l-0.6-2.3c-0.3,0.3-0.6,0.7-0.9,1l0.6,2.4C30.9,39.1,31.2,38.8,31.4,38.4z"/>
		</g>
		<g opacity="0.3">
		</g>
	</g>
</g>
</svg>
