<!--
  ~ WayFusion (www.wayfusion.com)
  ~
  ~ Copyright (c) 2017, Sergio Khlopenkov. All rights reserved.
  ~
  ~ This source code is licensed under the MIT license found in the
  ~ LICENSE file in the root directory of this source tree.
  -->

<svg xmlns="http://www.w3.org/2000/svg" xmlns:xlink="http://www.w3.org/1999/xlink" version="1.1" x="0px" y="0px" viewBox="0 0 100 125" enable-background="new 0 0 100 100" xml:space="preserve"><path d="M91.377,18.754c-0.363,0-0.706,0.07-1.037,0.169c-3.642-3.307-10.67-5.483-15.76-6.236  c-0.159-1.851-1.699-3.314-3.591-3.314c-1.998,0-3.623,1.625-3.623,3.623c0,0.046,0.012,0.088,0.013,0.133  c-4.598,1.477-10.892,4.843-14.609,6.942c-0.665-0.798-1.653-1.317-2.771-1.317c-1.131,0-2.129,0.531-2.794,1.345  c-3.838-2.118-10.425-5.559-15.186-7.017c0.001-0.029,0.009-0.057,0.009-0.086c0-1.998-1.625-3.623-3.623-3.623  c-1.907,0-3.458,1.486-3.596,3.358c-4.919,0.795-11.644,2.963-15.18,6.183c-0.322-0.094-0.656-0.16-1.008-0.16  C6.625,18.754,5,20.379,5,22.376c0,1.669,1.14,3.063,2.678,3.482c1.224,4.162,4.879,9.534,7.277,12.772  c-0.596,0.646-0.969,1.501-0.969,2.448c0,1.998,1.625,3.623,3.623,3.623c0.504,0,0.984-0.105,1.421-0.292l4.07,6.34l3.815,6.086  c-0.921,0.657-1.527,1.729-1.527,2.944c0,1.998,1.625,3.623,3.623,3.623c0.75,0,1.448-0.23,2.027-0.622l16.906,21.782  c-0.593,0.645-0.964,1.498-0.964,2.441c0,1.998,1.625,3.623,3.623,3.623c1.998,0,3.623-1.625,3.623-3.623  c0-0.985-0.398-1.877-1.038-2.531l15.596-21.461c0.485,0.241,1.024,0.39,1.601,0.39c1.998,0,3.623-1.625,3.623-3.623  c0-1.059-0.464-2.004-1.191-2.666l8.154-12.704c0.437,0.187,0.916,0.292,1.421,0.292c1.998,0,3.623-1.625,3.623-3.623  c0-0.947-0.374-1.804-0.971-2.45c2.394-3.236,6.039-8.604,7.256-12.763c1.549-0.411,2.7-1.812,2.7-3.489  C95,20.379,93.375,18.754,91.377,18.754z M50,25.999c0.428,0,0.833-0.088,1.215-0.225l7.343,13.084  c-0.363,0.464-0.618,1.011-0.72,1.616H42.764c-0.135-0.798-0.528-1.503-1.094-2.034l7.114-12.667  C49.166,25.911,49.571,25.999,50,25.999z M17.608,37.456c-0.616,0-1.188,0.169-1.696,0.441c-2.526-3.419-5.731-8.283-6.946-11.933  c1.834-0.176,3.279-1.708,3.279-3.588c0-1.171-0.568-2.203-1.433-2.866c3.303-2.745,9.409-4.811,14.109-5.578  c0.416,1.542,1.813,2.686,3.484,2.686c1.55,0,2.865-0.983,3.381-2.354c4.558,1.421,11.031,4.802,14.818,6.888  c-0.139,0.384-0.228,0.793-0.228,1.224c0,1.12,0.522,2.11,1.323,2.775L40.46,37.693c-0.393-0.147-0.813-0.238-1.257-0.238  c-1.791,0-3.272,1.309-3.561,3.019H21.17C20.88,38.765,19.399,37.456,17.608,37.456z M30.504,56.489  c-0.457-0.208-0.96-0.331-1.494-0.331c-0.348,0-0.678,0.065-0.997,0.157l-3.893-6.212l-4.081-6.357  c0.585-0.534,0.994-1.25,1.131-2.064h14.471c0.157,0.926,0.665,1.727,1.384,2.273l-1.776,3.413L30.504,56.489z M50.001,83.442  c-0.394,0.066-0.761,0.201-1.102,0.384L31.907,61.932c0.098-0.131,0.182-0.27,0.261-0.414l14.9,6.006  c-0.055,0.252-0.089,0.511-0.089,0.779c0,1.795,1.316,3.278,3.031,3.563L50.001,83.442z M52.205,83.772  c-0.311-0.155-0.643-0.269-0.996-0.329l0.01-11.58c1.704-0.295,3.006-1.774,3.006-3.56c0-0.294-0.045-0.576-0.111-0.85l13.237-5.707  c0.132,0.203,0.282,0.393,0.451,0.566L52.205,83.772z M66.762,59.78c0,0.297,0.046,0.581,0.113,0.857L53.64,66.342  c-0.646-0.997-1.763-1.662-3.038-1.662c-1.3,0-2.434,0.695-3.073,1.727l-14.957-6.029c0.033-0.196,0.061-0.394,0.061-0.599  c0-1.027-0.434-1.95-1.122-2.61l6.587-12.66c0.35,0.113,0.717,0.191,1.105,0.191c1.791,0,3.272-1.309,3.562-3.019h15.074  c0.289,1.71,1.771,3.019,3.561,3.019c0.188,0,0.368-0.028,0.548-0.055l6.278,12.243C67.343,57.55,66.762,58.594,66.762,59.78z   M71.808,56.45c-0.437-0.187-0.918-0.293-1.423-0.293c-0.379,0-0.738,0.075-1.082,0.183l-6.198-12.086  c0.965-0.52,1.667-1.454,1.856-2.573H78.83c0.138,0.814,0.546,1.531,1.132,2.064L71.808,56.45z M84.086,37.896  c-0.508-0.272-1.079-0.44-1.694-0.44c-1.791,0-3.272,1.309-3.562,3.019H64.961c-0.289-1.71-1.771-3.019-3.561-3.019  c-0.63,0-1.215,0.176-1.731,0.46L52.3,25.152c0.801-0.665,1.323-1.655,1.323-2.776c0-0.444-0.091-0.865-0.238-1.259  c3.663-2.065,9.839-5.37,14.237-6.81c0.527,1.349,1.834,2.311,3.368,2.311c1.687,0,3.096-1.164,3.497-2.727  c4.878,0.729,11.275,2.812,14.679,5.637c-0.852,0.663-1.41,1.687-1.41,2.848c0,1.873,1.435,3.401,3.26,3.586  C89.809,29.61,86.609,34.476,84.086,37.896z"/></svg>
