<!--
  ~ WayFusion (www.wayfusion.com)
  ~
  ~ Copyright (c) 2017, Sergio Khlopenkov. All rights reserved.
  ~
  ~ This source code is licensed under the MIT license found in the
  ~ LICENSE file in the root directory of this source tree.
  -->

<svg xmlns="http://www.w3.org/2000/svg" xmlns:xlink="http://www.w3.org/1999/xlink" version="1.1" x="0px" y="0px" viewBox="0 0 100 125" style="enable-background:new 0 0 100 100;" xml:space="preserve"><g><path d="M71.7,7c-1.1-1.2-2.7-1.9-4.3-2H32.9c-1.5,0.1-3,0.7-4.3,1.9c-1.1,1-1.7,2.6-1.8,4.1v77.9c0.1,1.4,0.6,2.8,1.6,3.9   c1.1,1.2,2.7,2,4.4,2.1h34.5c1.5-0.1,3-0.7,4.1-1.8c1.1-1.1,1.8-2.6,1.9-4.2v-78C73.3,9.5,72.7,8.1,71.7,7z M29.9,11.4   c0-0.9,0.3-1.8,0.9-2.4c0.6-0.7,1.6-1.1,2.5-1c11.4,0,22.7,0,34,0c1.7,0,3.2,1.5,3.3,3.2c0,2.2,0,4.3,0,6.5c-13.6,0-27.1,0-40.7,0   C29.9,15.6,29.9,13.5,29.9,11.4z M60.2,43.4c-4.4,4.5-8.8,9-13.3,13.5c-0.4,0.4-1,0.4-1.4,0c-2-2.1-4-4.1-6.1-6.2   c-0.4-0.4-0.4-1.1,0.1-1.4c0.4-0.4,1-0.3,1.4,0.1c1.8,1.8,3.5,3.6,5.3,5.4c4.2-4.3,8.3-8.6,12.6-12.8c0.4-0.4,1-0.4,1.4,0   C60.6,42.4,60.6,43,60.2,43.4z M70.6,89c-0.1,1.7-1.6,3.2-3.3,3.2c-11.4,0-22.7,0-34.1,0c-1.7,0-3.2-1.5-3.3-3.2c0-2.8,0-5.6,0-8.4   c13.5,0,27,0,40.7,0C70.6,83.4,70.6,86.2,70.6,89z"/><path d="M55,11.7c-3.2,0-6.4,0-9.6,0c-0.2,0-0.3,0-0.5,0.1c-0.4,0.2-0.7,0.6-0.6,1c0.1,0.5,0.5,0.9,1,0.9c3.3,0,6.5,0,9.7,0   c0.6,0,1-0.5,1-1C56,12.1,55.5,11.7,55,11.7z"/><path d="M48.1,89.9c1,0.6,2.2,0.7,3.2,0.3c1-0.3,1.8-1,2.3-2c0.4-0.9,0.5-2,0.2-3s-0.9-1.8-1.8-2.3c-0.8-0.5-1.8-0.7-2.8-0.5   c-1.1,0.2-2.1,0.8-2.7,1.8s-0.7,2.2-0.4,3.3C46.4,88.5,47.2,89.4,48.1,89.9z M47.9,86c0.2-0.8,0.8-1.4,1.5-1.6   c0.6-0.3,1.5-0.2,2,0.4c0.5,0.5,0.8,1.2,0.7,1.9c-0.1,0.8-0.6,1.4-1.3,1.7c-0.7,0.3-1.5,0.2-2.1-0.3C48,87.6,47.7,86.8,47.9,86z"/></g></svg>
