<!--
  ~ WayFusion (www.wayfusion.com)
  ~
  ~ Copyright (c) 2017, Sergio Khlopenkov. All rights reserved.
  ~
  ~ This source code is licensed under the MIT license found in the
  ~ LICENSE file in the root directory of this source tree.
  -->

<svg xmlns="http://www.w3.org/2000/svg" xmlns:xlink="http://www.w3.org/1999/xlink" version="1.1" x="0px" y="0px" viewBox="0 0 100 125" enable-background="new 0 0 100 100" xml:space="preserve"><path fill="#000000" d="M72.78,20.246H27.22c-0.949,0-1.72-0.771-1.72-1.722v-1.863C25.5,10.231,30.752,5,37.207,5h25.586  C69.248,5,74.5,10.231,74.5,16.661v1.863C74.5,19.475,73.729,20.246,72.78,20.246z M28.94,16.803h42.12v-0.142  c0-4.532-3.709-8.219-8.267-8.219H37.207c-4.558,0-8.267,3.687-8.267,8.219V16.803z"/><path fill="#000000" d="M62.793,95H37.207C30.752,95,25.5,89.77,25.5,83.339v-7.377c0-0.95,0.771-1.722,1.72-1.722H72.78  c0.949,0,1.72,0.771,1.72,1.722v7.377C74.5,89.77,69.248,95,62.793,95z M28.94,77.684v5.655c0,4.532,3.709,8.219,8.267,8.219h25.586  c4.558,0,8.267-3.687,8.267-8.219v-5.655H28.94z"/><circle fill="#000000" cx="50" cy="84.232" r="3.287"/><path fill="#000000" d="M41.83,12.623c0,0.611,0.495,1.106,1.105,1.106h14.129c0.61,0,1.105-0.496,1.105-1.106l0,0  c0-0.611-0.495-1.106-1.105-1.106H42.936C42.325,11.517,41.83,12.012,41.83,12.623L41.83,12.623z"/><path fill="#000000" d="M72.78,77.684H27.22c-0.949,0-1.72-0.771-1.72-1.722V18.524c0-0.95,0.771-1.721,1.72-1.721H72.78  c0.949,0,1.72,0.771,1.72,1.721v57.438C74.5,76.912,73.729,77.684,72.78,77.684z M28.94,74.24h42.12V20.246H28.94V74.24z"/><circle fill="#000000" cx="41.011" cy="47.245" r="1.576"/><circle fill="#000000" cx="58.989" cy="39.425" r="1.579"/><path fill="#000000" d="M58.989,56.641c0.869,0,1.576-0.707,1.576-1.574c0-0.872-0.708-1.582-1.576-1.582  c-0.869,0-1.577,0.71-1.577,1.582C57.413,55.934,58.12,56.641,58.989,56.641z"/><path fill="#000000" d="M32.421,25.083v44.322h35.158V25.083H32.421z M46.027,47.243c0,0.227-0.021,0.448-0.05,0.667l8.673,4.646  c0.869-1.5,2.486-2.513,4.339-2.513c2.766,0,5.017,2.253,5.017,5.024c0,2.766-2.25,5.017-5.017,5.017  c-2.389,0-4.389-1.68-4.892-3.919l-9.722-5.208c-0.891,0.81-2.069,1.308-3.364,1.308c-2.766,0-5.016-2.252-5.016-5.021  c0-2.766,2.25-5.017,5.016-5.017c1.294,0,2.472,0.497,3.363,1.305l9.724-5.206c0.502-2.241,2.503-3.922,4.892-3.922  c2.766,0,5.017,2.252,5.017,5.021c0,2.77-2.25,5.023-5.017,5.023c-1.853,0-3.47-1.014-4.339-2.514l-8.673,4.643  C46.007,46.795,46.027,47.017,46.027,47.243z"/></svg>
