<!--
  ~ WayFusion (www.wayfusion.com)
  ~
  ~ Copyright (c) 2017, Sergio Khlopenkov. All rights reserved.
  ~
  ~ This source code is licensed under the MIT license found in the
  ~ LICENSE file in the root directory of this source tree.
  -->

<svg xmlns="http://www.w3.org/2000/svg" xmlns:xlink="http://www.w3.org/1999/xlink" version="1.1" x="0px" y="0px" viewBox="0 0 80.203 111.515" enable-background="new 0 0 80.203 89.212" xml:space="preserve">
    <path d="M17.19,75.311c0-1.76,1.427-3.188,3.188-3.188l0,0c1.761,0,3.188,1.428,3.188,3.188l0,0c0,1.761-1.427,3.188-3.188,3.188  l0,0C18.618,78.499,17.19,77.072,17.19,75.311L17.19,75.311z M17.612,75.311c0.002,1.527,1.239,2.764,2.767,2.768l0,0  c1.528-0.004,2.764-1.24,2.767-2.768l0,0c-0.002-1.528-1.239-2.764-2.767-2.768l0,0C18.851,72.547,17.614,73.783,17.612,75.311  L17.612,75.311z"/><path d="M0,29.876v-5.195c0-0.326,0.263-0.59,0.589-0.59l0,0c0.326,0,0.589,0.264,0.589,0.59l0,0v5.195  c0,0.325-0.263,0.589-0.589,0.589l0,0C0.263,30.465,0,30.202,0,29.876L0,29.876z"/><path d="M0,21.729v-5.195c0-0.325,0.263-0.589,0.589-0.589l0,0c0.326,0,0.589,0.264,0.589,0.589l0,0v5.195  c0,0.326-0.263,0.59-0.589,0.59l0,0C0.263,22.319,0,22.055,0,21.729L0,21.729z"/><path d="M0,12.52V9.686c0-0.325,0.263-0.589,0.589-0.589l0,0c0.326,0,0.589,0.264,0.589,0.589l0,0v2.833  c0,0.326-0.263,0.589-0.589,0.589l0,0C0.263,13.108,0,12.845,0,12.52L0,12.52z"/><path d="M39.529,21.639v-5.195c0-0.325,0.263-0.589,0.589-0.589l0,0c0.325,0,0.589,0.264,0.589,0.589l0,0v5.195  c0,0.326-0.264,0.589-0.589,0.589l0,0C39.792,22.228,39.529,21.964,39.529,21.639L39.529,21.639z"/><circle cx="20.378" cy="2.611" r="0.563"/><path d="M17.013,5.028c-0.208,0-0.378-0.17-0.378-0.379l0,0c0-0.209,0.17-0.379,0.378-0.379l0,0h6.73  c0.208,0,0.379,0.169,0.379,0.379l0,0c0,0.209-0.17,0.379-0.379,0.379l0,0H17.013L17.013,5.028z"/><circle cx="13.957" cy="4.649" r="0.708"/><g><g><path d="M80.062,41.531c-1.904-2.564-4.688-3.835-7.221-3.307c-0.76,0.161-1.488,0.489-2.135,0.986    c-0.025,0.019-0.037,0.046-0.059,0.067c-0.016,0.009-0.031,0.011-0.045,0.022c-1.504,1.155-2.307,2.887-2.223,4.567    c-0.834-0.285-1.752-0.334-2.645-0.142c-0.797,0.169-1.584,0.524-2.289,1.067c-0.039,0.029-0.061,0.069-0.092,0.104    c-0.041,0.021-0.086,0.032-0.125,0.062c-1.49,1.146-2.291,2.859-2.219,4.527c-0.885-0.35-1.879-0.432-2.846-0.224    c-0.799,0.169-1.584,0.524-2.289,1.066c-0.037,0.029-0.061,0.069-0.09,0.104c-0.043,0.021-0.088,0.031-0.125,0.062    c-1.215,0.933-1.961,2.244-2.162,3.599L41.724,38.826c-1.542-1.995-3.889-2.953-6.007-2.512c-0.687,0.145-1.346,0.445-1.919,0.904    l0,0c-0.782,0.624-1.313,1.467-1.588,2.393c-0.274,0.927-0.299,1.938-0.087,2.939c0.177,0.838,0.533,1.664,1.045,2.432    c0.018,0.034,0.025,0.071,0.048,0.103l13.245,17.851c-0.635,0.848-0.955,1.912-1.053,3.086c-0.1,1.206,0.027,2.538,0.322,3.937    c0.973,4.541,3.721,9.8,6.961,13.099c2.178,2.211,4.396,3.861,6.451,4.9c2.055,1.029,3.953,1.479,5.555,1.146    c0.002,0,0.002,0,0.006,0c0.574-0.121,1.107-0.355,1.562-0.705c0.314-0.24,0.375-0.691,0.135-1.008    c-0.242-0.314-0.693-0.373-1.01-0.133c-0.271,0.209-0.598,0.355-0.992,0.441c-1.088,0.238-2.73-0.074-4.607-1.025    c-1.879-0.949-3.988-2.508-6.076-4.627c-3.002-3.031-5.689-8.166-6.576-12.387c-0.275-1.297-0.383-2.504-0.299-3.52    c0.066-0.793,0.252-1.455,0.535-1.975l10.35,13.947c0.174,0.234,0.461,0.332,0.727,0.275c0.098-0.021,0.195-0.061,0.279-0.126    c0.32-0.235,0.385-0.687,0.15-1.005L34.589,44.521l0.004-0.003c-0.547-0.708-0.899-1.492-1.063-2.268    c-0.167-0.784-0.14-1.556,0.061-2.23c0.202-0.675,0.569-1.25,1.105-1.679l-0.156-0.195l0.156,0.195    c0.394-0.314,0.839-0.518,1.321-0.62c1.469-0.32,3.323,0.365,4.568,1.983l13.711,17.777c0.004,0.004,0.008,0.004,0.012,0.008    c0.084,0.107,0.193,0.186,0.314,0.229c0.002,0.002,0.004,0.002,0.008,0.002c0.123,0.043,0.256,0.053,0.387,0.025    c0.098-0.021,0.191-0.062,0.277-0.125c0.002-0.002,0.004-0.004,0.006-0.006c0.002-0.001,0.004-0.001,0.004-0.002    c0.035-0.026,0.055-0.062,0.082-0.094c0.035-0.038,0.076-0.072,0.102-0.117c0.023-0.039,0.031-0.084,0.045-0.128    c0.016-0.044,0.039-0.086,0.045-0.132c0.006-0.043-0.004-0.086-0.006-0.129c-0.002-0.049,0.002-0.098-0.01-0.146    c-0.012-0.044-0.039-0.082-0.059-0.125s-0.031-0.088-0.061-0.127c-0.252-0.34-0.418-0.72-0.504-1.125    c-0.277-1.28,0.283-2.85,1.598-3.854c0.039-0.029,0.061-0.07,0.092-0.105c0.041-0.021,0.086-0.031,0.125-0.061    c0.537-0.413,1.125-0.677,1.711-0.802c1.305-0.271,2.549,0.128,3.266,1.094c0.02,0.026,0.043,0.044,0.066,0.066    c0.023,0.034,0.037,0.073,0.062,0.107c0.172,0.233,0.459,0.331,0.727,0.275c0.098-0.021,0.193-0.063,0.279-0.126    c0.318-0.236,0.385-0.688,0.148-1.006c-0.252-0.341-0.418-0.72-0.506-1.125c-0.275-1.281,0.285-2.85,1.598-3.855    c0.039-0.029,0.061-0.069,0.09-0.104c0.043-0.021,0.09-0.032,0.129-0.062c0.535-0.413,1.125-0.676,1.709-0.8    c1.141-0.238,2.232,0.037,2.967,0.752c0.078,0.131,0.139,0.269,0.23,0.393c0.172,0.233,0.461,0.332,0.727,0.275    c0.098-0.021,0.191-0.062,0.277-0.127c0.014-0.01,0.02-0.024,0.033-0.035c0.012-0.008,0.025-0.009,0.037-0.018    c0.318-0.236,0.385-0.687,0.148-1.005c-0.092-0.125-0.197-0.234-0.301-0.346c-0.119-0.231-0.219-0.472-0.273-0.727    c-0.277-1.281,0.283-2.849,1.6-3.854c0.023-0.019,0.037-0.045,0.057-0.066c0.016-0.01,0.033-0.012,0.049-0.023    c0.479-0.366,1-0.602,1.557-0.721c1.83-0.397,4.119,0.535,5.768,2.757c0.172,0.234,0.459,0.332,0.727,0.275    c0.098-0.021,0.193-0.062,0.277-0.126C80.231,42.301,80.298,41.85,80.062,41.531z"/></g></g><g><g><polygon points="38.11,50.498 38.11,70.692 2.646,70.692 2.646,10.021 38.11,10.021 38.11,37.032 38.532,37.032 38.532,9.601     2.226,9.601 2.226,71.113 38.532,71.113 38.532,50.498   "/></g></g><g><g><path d="M39.521,52.181v20.976c0.003,1.08-0.01,2.898-0.817,4.4c-0.403,0.751-0.994,1.426-1.895,1.926    c-0.901,0.499-2.125,0.823-3.799,0.824H7.747c-1.674-0.001-2.897-0.325-3.8-0.824c-1.348-0.748-2.014-1.896-2.363-3.095    c-0.346-1.196-0.349-2.419-0.349-3.231V7.907c-0.002-1.081,0.011-2.898,0.817-4.4c0.402-0.751,0.993-1.426,1.894-1.926    c0.902-0.499,2.125-0.823,3.8-0.824H33.01c1.674,0,2.898,0.325,3.799,0.824c1.348,0.749,2.015,1.897,2.363,3.095    c0.347,1.196,0.349,2.42,0.349,3.231v29.966h0.758V7.907c-0.004-1.09,0.01-3.037-0.906-4.757c-0.459-0.859-1.16-1.659-2.196-2.232    C36.14,0.345,34.781,0,33.01,0H7.747c-1.771,0-3.13,0.345-4.167,0.918c-1.559,0.86-2.346,2.226-2.724,3.547    C0.476,5.79,0.479,7.09,0.478,7.907v65.25c0.003,1.09-0.009,3.036,0.907,4.758c0.458,0.859,1.16,1.658,2.196,2.23    c1.036,0.574,2.396,0.92,4.167,0.918h25.264c1.77,0,3.13-0.345,4.166-0.918c1.558-0.859,2.346-2.226,2.724-3.547    c0.381-1.324,0.377-2.625,0.378-3.441V52.181H39.521z"/></g></g><path d="M5.594,40.594c-0.651,0-1.178-0.527-1.178-1.178l0,0c0-0.651,0.527-1.178,1.178-1.178l0,0h26.388  c0.65,0,1.178,0.527,1.178,1.178l0,0c0,0.651-0.528,1.178-1.178,1.178l0,0H5.594L5.594,40.594z"/><path d="M11.208,45.415l-6.857-5.05c-0.524-0.386-0.636-1.124-0.25-1.647l0,0c0.385-0.525,1.123-0.637,1.647-0.25l0,0l6.858,5.05  c0.523,0.386,0.635,1.124,0.25,1.647l0,0c-0.231,0.314-0.589,0.48-0.95,0.48l0,0C11.664,45.644,11.418,45.569,11.208,45.415  L11.208,45.415z"/><path d="M4.083,39.948c-0.373-0.534-0.24-1.268,0.294-1.64l0,0l6.858-4.769c0.534-0.373,1.269-0.24,1.64,0.294l0,0  c0.372,0.534,0.24,1.269-0.294,1.641l0,0l-6.858,4.768c-0.205,0.143-0.439,0.212-0.671,0.212l0,0  C4.677,40.455,4.311,40.278,4.083,39.948L4.083,39.948z"/>
</svg>
